P3
84 24
255

0 0 255 3 0 252 6 0 249 9 0 246 12 0 243 15 0 240 18 0 237 21 0 234 24 0 231 27 0 228 30 0 225 33 0 222 36 0 219 39 0 216 42 0 213 45 0 210 48 0 207 51 0 204 54 0 201 57 0 198 60 0 195 63 0 192 66 0 189 69 0 186 72 0 183 75 0 180 78 0 177 81 0 174 85 0 170 88 0 167 91 0 164 94 0 161 97 0 158 100 0 155 103 0 152 106 0 149 109 0 146 112 0 143 115 0 140 118 0 137 121 0 134 124 0 131 127 0 128 130 0 125 133 0 122 136 0 119 139 0 116 142 0 113 145 0 110 148 0 107 151 0 104 154 0 101 157 0 98 160 0 95 163 0 92 166 0 89 170 0 85 173 0 82 176 0 79 179 0 76 182 0 73 185 0 70 188 0 67 191 0 64 194 0 61 197 0 58 200 0 55 203 0 52 206 0 49 209 0 46 212 0 43 215 0 40 218 0 37 221 0 34 224 0 31 227 0 28 230 0 25 233 0 22 236 0 19 239 0 16 242 0 13 245 0 10 248 0 7 251 0 4 
0 10 255 3 10 252 6 10 249 9 10 246 12 10 243 15 10 240 18 10 237 21 10 234 24 10 231 27 10 228 30 10 225 33 10 222 36 10 219 39 10 216 42 10 213 45 10 210 48 10 207 51 10 204 54 10 201 57 10 198 60 10 195 63 10 192 66 10 189 69 10 186 72 10 183 75 10 180 78 10 177 81 10 174 85 10 170 88 10 167 91 10 164 94 10 161 97 10 158 100 10 155 103 10 152 106 10 149 109 10 146 112 10 143 115 10 140 118 10 137 121 10 134 124 10 131 127 10 128 130 10 125 133 10 122 136 10 119 139 10 116 142 10 113 145 10 110 148 10 107 151 10 104 154 10 101 157 10 98 160 10 95 163 10 92 166 10 89 170 10 85 173 10 82 176 10 79 179 10 76 182 10 73 185 10 70 188 10 67 191 10 64 194 10 61 197 10 58 200 10 55 203 10 52 206 10 49 209 10 46 212 10 43 215 10 40 218 10 37 221 10 34 224 10 31 227 10 28 230 10 25 233 10 22 236 10 19 239 10 16 242 10 13 245 10 10 248 10 7 251 10 4 
0 21 255 3 21 252 6 21 249 9 21 246 12 21 243 15 21 240 18 21 237 21 21 234 24 21 231 27 21 228 30 21 225 33 21 222 36 21 219 39 21 216 42 21 213 45 21 210 48 21 207 51 21 204 54 21 201 57 21 198 60 21 195 63 21 192 66 21 189 69 21 186 72 21 183 75 21 180 78 21 177 81 21 174 85 21 170 88 21 167 91 21 164 94 21 161 97 21 158 100 21 155 103 21 152 106 21 149 109 21 146 112 21 143 115 21 140 118 21 137 121 21 134 124 21 131 127 21 128 130 21 125 133 21 122 136 21 119 139 21 116 142 21 113 145 21 110 148 21 107 151 21 104 154 21 101 157 21 98 160 21 95 163 21 92 166 21 89 170 21 85 173 21 82 176 21 79 179 21 76 182 21 73 185 21 70 188 21 67 191 21 64 194 21 61 197 21 58 200 21 55 203 21 52 206 21 49 209 21 46 212 21 43 215 21 40 218 21 37 221 21 34 224 21 31 227 21 28 230 21 25 233 21 22 236 21 19 239 21 16 242 21 13 245 21 10 248 21 7 251 21 4 
0 31 255 3 31 252 6 31 249 9 31 246 12 31 243 15 31 240 18 31 237 21 31 234 24 31 231 27 31 228 30 31 225 33 31 222 36 31 219 39 31 216 42 31 213 45 31 210 48 31 207 51 31 204 54 31 201 57 31 198 60 31 195 63 31 192 66 31 189 69 31 186 72 31 183 75 31 180 78 31 177 81 31 174 85 31 170 88 31 167 91 31 164 94 31 161 97 31 158 100 31 155 103 31 152 106 31 149 109 31 146 112 31 143 115 31 140 118 31 137 121 31 134 124 31 131 127 31 128 130 31 125 133 31 122 136 31 119 139 31 116 142 31 113 145 31 110 148 31 107 151 31 104 154 31 101 157 31 98 160 31 95 163 31 92 166 31 89 170 31 85 173 31 82 176 31 79 179 31 76 182 31 73 185 31 70 188 31 67 191 31 64 194 31 61 197 31 58 200 31 55 203 31 52 206 31 49 209 31 46 212 31 43 215 31 40 218 31 37 221 31 34 224 31 31 227 31 28 230 31 25 233 31 22 236 31 19 239 31 16 242 31 13 245 31 10 248 31 7 251 31 4 
0 42 255 3 42 252 6 42 249 9 42 246 12 42 243 15 42 240 18 42 237 21 42 234 24 42 231 27 42 228 30 42 225 33 42 222 36 42 219 39 42 216 42 42 213 45 42 210 48 42 207 51 42 204 54 42 201 57 42 198 60 42 195 63 42 192 66 42 189 69 42 186 72 42 183 75 42 180 78 42 177 81 42 174 85 42 170 88 42 167 91 42 164 94 42 161 97 42 158 100 42 155 103 42 152 106 42 149 109 42 146 112 42 143 115 42 140 118 42 137 121 42 134 124 42 131 127 42 128 130 42 125 133 42 122 136 42 119 139 42 116 142 42 113 145 42 110 148 42 107 151 42 104 154 42 101 157 42 98 160 42 95 163 42 92 166 42 89 170 42 85 173 42 82 176 42 79 179 42 76 182 42 73 185 42 70 188 42 67 191 42 64 194 42 61 197 42 58 200 42 55 203 42 52 206 42 49 209 42 46 212 42 43 215 42 40 218 42 37 221 42 34 224 42 31 227 42 28 230 42 25 233 42 22 236 42 19 239 42 16 242 42 13 245 42 10 248 42 7 251 42 4 
0 53 255 3 53 252 6 53 249 9 53 246 12 53 243 15 53 240 18 53 237 21 53 234 24 53 231 27 53 228 30 53 225 33 53 222 36 53 219 39 53 216 42 53 213 45 53 210 48 53 207 51 53 204 54 53 201 57 53 198 60 53 195 63 53 192 66 53 189 69 53 186 72 53 183 75 53 180 78 53 177 81 53 174 85 53 170 88 53 167 91 53 164 94 53 161 97 53 158 100 53 155 103 53 152 106 53 149 109 53 146 112 53 143 115 53 140 118 53 137 121 53 134 124 53 131 127 53 128 130 53 125 133 53 122 136 53 119 139 53 116 142 53 113 145 53 110 148 53 107 151 53 104 154 53 101 157 53 98 160 53 95 163 53 92 166 53 89 170 53 85 173 53 82 176 53 79 179 53 76 182 53 73 185 53 70 188 53 67 191 53 64 194 53 61 197 53 58 200 53 55 203 53 52 206 53 49 209 53 46 212 53 43 215 53 40 218 53 37 221 53 34 224 53 31 227 53 28 230 53 25 233 53 22 236 53 19 239 53 16 242 53 13 245 53 10 248 53 7 251 53 4 
0 63 255 3 63 252 6 63 249 9 63 246 12 63 243 15 63 240 18 63 237 21 63 234 24 63 231 27 63 228 30 63 225 33 63 222 36 63 219 39 63 216 42 63 213 45 63 210 48 63 207 51 63 204 54 63 201 57 63 198 60 63 195 63 63 192 66 63 189 69 63 186 72 63 183 75 63 180 78 63 177 81 63 174 85 63 170 88 63 167 91 63 164 94 63 161 97 63 158 100 63 155 103 63 152 106 63 149 109 63 146 112 63 143 115 63 140 118 63 137 121 63 134 124 63 131 127 63 128 130 63 125 133 63 122 136 63 119 139 63 116 142 63 113 145 63 110 148 63 107 151 63 104 154 63 101 157 63 98 160 63 95 163 63 92 166 63 89 170 63 85 173 63 82 176 63 79 179 63 76 182 63 73 185 63 70 188 63 67 191 63 64 194 63 61 197 63 58 200 63 55 203 63 52 206 63 49 209 63 46 212 63 43 215 63 40 218 63 37 221 63 34 224 63 31 227 63 28 230 63 25 233 63 22 236 63 19 239 63 16 242 63 13 245 63 10 248 63 7 251 63 4 
0 74 255 3 74 252 6 74 249 9 74 246 12 74 243 15 74 240 18 74 237 21 74 234 24 74 231 27 74 228 30 74 225 33 74 222 36 74 219 39 74 216 42 74 213 45 74 210 48 74 207 51 74 204 54 74 201 57 74 198 60 74 195 63 74 192 66 74 189 69 74 186 72 74 183 75 74 180 78 74 177 81 74 174 85 74 170 88 74 167 91 74 164 94 74 161 97 74 158 100 74 155 103 74 152 106 74 149 109 74 146 112 74 143 115 74 140 118 74 137 121 74 134 124 74 131 127 74 128 130 74 125 133 74 122 136 74 119 139 74 116 142 74 113 145 74 110 148 74 107 151 74 104 154 74 101 157 74 98 160 74 95 163 74 92 166 74 89 170 74 85 173 74 82 176 74 79 179 74 76 182 74 73 185 74 70 188 74 67 191 74 64 194 74 61 197 74 58 200 74 55 203 74 52 206 74 49 209 74 46 212 74 43 215 74 40 218 74 37 221 74 34 224 74 31 227 74 28 230 74 25 233 74 22 236 74 19 239 74 16 242 74 13 245 74 10 248 74 7 251 74 4 
0 85 255 3 85 252 6 85 249 9 85 246 12 85 243 15 85 240 18 85 237 21 85 234 24 85 231 27 85 228 30 85 225 33 85 222 36 85 219 39 85 216 42 85 213 45 85 210 48 85 207 51 85 204 54 85 201 57 85 198 60 85 195 63 85 192 66 85 189 69 85 186 72 85 183 75 85 180 78 85 177 81 85 174 85 85 170 88 85 167 91 85 164 94 85 161 97 85 158 100 85 155 103 85 152 106 85 149 109 85 146 112 85 143 115 85 140 118 85 137 121 85 134 124 85 131 127 85 128 130 85 125 133 85 122 136 85 119 139 85 116 142 85 113 145 85 110 148 85 107 151 85 104 154 85 101 157 85 98 160 85 95 163 85 92 166 85 89 170 85 85 173 85 82 176 85 79 179 85 76 182 85 73 185 85 70 188 85 67 191 85 64 194 85 61 197 85 58 200 85 55 203 85 52 206 85 49 209 85 46 212 85 43 215 85 40 218 85 37 221 85 34 224 85 31 227 85 28 230 85 25 233 85 22 236 85 19 239 85 16 242 85 13 245 85 10 248 85 7 251 85 4 
0 95 255 3 95 252 6 95 249 9 95 246 12 95 243 15 95 240 18 95 237 21 95 234 24 95 231 27 95 228 30 95 225 33 95 222 36 95 219 39 95 216 42 95 213 45 95 210 48 95 207 51 95 204 54 95 201 57 95 198 60 95 195 63 95 192 66 95 189 69 95 186 72 95 183 75 95 180 78 95 177 81 95 174 85 95 170 88 95 167 91 95 164 94 95 161 97 95 158 100 95 155 103 95 152 106 95 149 109 95 146 112 95 143 115 95 140 118 95 137 121 95 134 124 95 131 127 95 128 130 95 125 133 95 122 136 95 119 139 95 116 142 95 113 145 95 110 148 95 107 151 95 104 154 95 101 157 95 98 160 95 95 163 95 92 166 95 89 170 95 85 173 95 82 176 95 79 179 95 76 182 95 73 185 95 70 188 95 67 191 95 64 194 95 61 197 95 58 200 95 55 203 95 52 206 95 49 209 95 46 212 95 43 215 95 40 218 95 37 221 95 34 224 95 31 227 95 28 230 95 25 233 95 22 236 95 19 239 95 16 242 95 13 245 95 10 248 95 7 251 95 4 
0 106 255 3 106 252 6 106 249 9 106 246 12 106 243 15 106 240 18 106 237 21 106 234 24 106 231 27 106 228 30 106 225 33 106 222 36 106 219 39 106 216 42 106 213 45 106 210 48 106 207 51 106 204 54 106 201 57 106 198 60 106 195 63 106 192 66 106 189 69 106 186 72 106 183 75 106 180 78 106 177 81 106 174 85 106 170 88 106 167 91 106 164 94 106 161 97 106 158 100 106 155 103 106 152 106 106 149 109 106 146 112 106 143 115 106 140 118 106 137 121 106 134 124 106 131 127 106 128 130 106 125 133 106 122 136 106 119 139 106 116 142 106 113 145 106 110 148 106 107 151 106 104 154 106 101 157 106 98 160 106 95 163 106 92 166 106 89 170 106 85 173 106 82 176 106 79 179 106 76 182 106 73 185 106 70 188 106 67 191 106 64 194 106 61 197 106 58 200 106 55 203 106 52 206 106 49 209 106 46 212 106 43 215 106 40 218 106 37 221 106 34 224 106 31 227 106 28 230 106 25 233 106 22 236 106 19 239 106 16 242 106 13 245 106 10 248 106 7 251 106 4 
0 116 255 3 116 252 6 116 249 9 116 246 12 116 243 15 116 240 18 116 237 21 116 234 24 116 231 27 116 228 30 116 225 33 116 222 36 116 219 39 116 216 42 116 213 45 116 210 48 116 207 51 116 204 54 116 201 57 116 198 60 116 195 63 116 192 66 116 189 69 116 186 72 116 183 75 116 180 78 116 177 81 116 174 85 116 170 88 116 167 91 116 164 94 116 161 97 116 158 100 116 155 103 116 152 106 116 149 109 116 146 112 116 143 115 116 140 118 116 137 121 116 134 124 116 131 127 116 128 130 116 125 133 116 122 136 116 119 139 116 116 142 116 113 145 116 110 148 116 107 151 116 104 154 116 101 157 116 98 160 116 95 163 116 92 166 116 89 170 116 85 173 116 82 176 116 79 179 116 76 182 116 73 185 116 70 188 116 67 191 116 64 194 116 61 197 116 58 200 116 55 203 116 52 206 116 49 209 116 46 212 116 43 215 116 40 218 116 37 221 116 34 224 116 31 227 116 28 230 116 25 233 116 22 236 116 19 239 116 16 242 116 13 245 116 10 248 116 7 251 116 4 
0 127 255 3 127 252 6 127 249 9 127 246 12 127 243 15 127 240 18 127 237 21 127 234 24 127 231 27 127 228 30 127 225 33 127 222 36 127 219 39 127 216 42 127 213 45 127 210 48 127 207 51 127 204 54 127 201 57 127 198 60 127 195 63 127 192 66 127 189 69 127 186 72 127 183 75 127 180 78 127 177 81 127 174 85 127 170 88 127 167 91 127 164 94 127 161 97 127 158 100 127 155 103 127 152 106 127 149 109 127 146 112 127 143 115 127 140 118 127 137 121 127 134 124 127 131 127 127 128 130 127 125 133 127 122 136 127 119 139 127 116 142 127 113 145 127 110 148 127 107 151 127 104 154 127 101 157 127 98 160 127 95 163 127 92 166 127 89 170 127 85 173 127 82 176 127 79 179 127 76 182 127 73 185 127 70 188 127 67 191 127 64 194 127 61 197 127 58 200 127 55 203 127 52 206 127 49 209 127 46 212 127 43 215 127 40 218 127 37 221 127 34 224 127 31 227 127 28 230 127 25 233 127 22 236 127 19 239 127 16 242 127 13 245 127 10 248 127 7 251 127 4 
0 138 255 3 138 252 6 138 249 9 138 246 12 138 243 15 138 240 18 138 237 21 138 234 24 138 231 27 138 228 30 138 225 33 138 222 36 138 219 39 138 216 42 138 213 45 138 210 48 138 207 51 138 204 54 138 201 57 138 198 60 138 195 63 138 192 66 138 189 69 138 186 72 138 183 75 138 180 78 138 177 81 138 174 85 138 170 88 138 167 91 138 164 94 138 161 97 138 158 100 138 155 103 138 152 106 138 149 109 138 146 112 138 143 115 138 140 118 138 137 121 138 134 124 138 131 127 138 128 130 138 125 133 138 122 136 138 119 139 138 116 142 138 113 145 138 110 148 138 107 151 138 104 154 138 101 157 138 98 160 138 95 163 138 92 166 138 89 170 138 85 173 138 82 176 138 79 179 138 76 182 138 73 185 138 70 188 138 67 191 138 64 194 138 61 197 138 58 200 138 55 203 138 52 206 138 49 209 138 46 212 138 43 215 138 40 218 138 37 221 138 34 224 138 31 227 138 28 230 138 25 233 138 22 236 138 19 239 138 16 242 138 13 245 138 10 248 138 7 251 138 4 
0 148 255 3 148 252 6 148 249 9 148 246 12 148 243 15 148 240 18 148 237 21 148 234 24 148 231 27 148 228 30 148 225 33 148 222 36 148 219 39 148 216 42 148 213 45 148 210 48 148 207 51 148 204 54 148 201 57 148 198 60 148 195 63 148 192 66 148 189 69 148 186 72 148 183 75 148 180 78 148 177 81 148 174 85 148 170 88 148 167 91 148 164 94 148 161 97 148 158 100 148 155 103 148 152 106 148 149 109 148 146 112 148 143 115 148 140 118 148 137 121 148 134 124 148 131 127 148 128 130 148 125 133 148 122 136 148 119 139 148 116 142 148 113 145 148 110 148 148 107 151 148 104 154 148 101 157 148 98 160 148 95 163 148 92 166 148 89 170 148 85 173 148 82 176 148 79 179 148 76 182 148 73 185 148 70 188 148 67 191 148 64 194 148 61 197 148 58 200 148 55 203 148 52 206 148 49 209 148 46 212 148 43 215 148 40 218 148 37 221 148 34 224 148 31 227 148 28 230 148 25 233 148 22 236 148 19 239 148 16 242 148 13 245 148 10 248 148 7 251 148 4 
0 159 255 3 159 252 6 159 249 9 159 246 12 159 243 15 159 240 18 159 237 21 159 234 24 159 231 27 159 228 30 159 225 33 159 222 36 159 219 39 159 216 42 159 213 45 159 210 48 159 207 51 159 204 54 159 201 57 159 198 60 159 195 63 159 192 66 159 189 69 159 186 72 159 183 75 159 180 78 159 177 81 159 174 85 159 170 88 159 167 91 159 164 94 159 161 97 159 158 100 159 155 103 159 152 106 159 149 109 159 146 112 159 143 115 159 140 118 159 137 121 159 134 124 159 131 127 159 128 130 159 125 133 159 122 136 159 119 139 159 116 142 159 113 145 159 110 148 159 107 151 159 104 154 159 101 157 159 98 160 159 95 163 159 92 166 159 89 170 159 85 173 159 82 176 159 79 179 159 76 182 159 73 185 159 70 188 159 67 191 159 64 194 159 61 197 159 58 200 159 55 203 159 52 206 159 49 209 159 46 212 159 43 215 159 40 218 159 37 221 159 34 224 159 31 227 159 28 230 159 25 233 159 22 236 159 19 239 159 16 242 159 13 245 159 10 248 159 7 251 159 4 
0 170 255 3 170 252 6 170 249 9 170 246 12 170 243 15 170 240 18 170 237 21 170 234 24 170 231 27 170 228 30 170 225 33 170 222 36 170 219 39 170 216 42 170 213 45 170 210 48 170 207 51 170 204 54 170 201 57 170 198 60 170 195 63 170 192 66 170 189 69 170 186 72 170 183 75 170 180 78 170 177 81 170 174 85 170 170 88 170 167 91 170 164 94 170 161 97 170 158 100 170 155 103 170 152 106 170 149 109 170 146 112 170 143 115 170 140 118 170 137 121 170 134 124 170 131 127 170 128 130 170 125 133 170 122 136 170 119 139 170 116 142 170 113 145 170 110 148 170 107 151 170 104 154 170 101 157 170 98 160 170 95 163 170 92 166 170 89 170 170 85 173 170 82 176 170 79 179 170 76 182 170 73 185 170 70 188 170 67 191 170 64 194 170 61 197 170 58 200 170 55 203 170 52 206 170 49 209 170 46 212 170 43 215 170 40 218 170 37 221 170 34 224 170 31 227 170 28 230 170 25 233 170 22 236 170 19 239 170 16 242 170 13 245 170 10 248 170 7 251 170 4 
0 180 255 3 180 252 6 180 249 9 180 246 12 180 243 15 180 240 18 180 237 21 180 234 24 180 231 27 180 228 30 180 225 33 180 222 36 180 219 39 180 216 42 180 213 45 180 210 48 180 207 51 180 204 54 180 201 57 180 198 60 180 195 63 180 192 66 180 189 69 180 186 72 180 183 75 180 180 78 180 177 81 180 174 85 180 170 88 180 167 91 180 164 94 180 161 97 180 158 100 180 155 103 180 152 106 180 149 109 180 146 112 180 143 115 180 140 118 180 137 121 180 134 124 180 131 127 180 128 130 180 125 133 180 122 136 180 119 139 180 116 142 180 113 145 180 110 148 180 107 151 180 104 154 180 101 157 180 98 160 180 95 163 180 92 166 180 89 170 180 85 173 180 82 176 180 79 179 180 76 182 180 73 185 180 70 188 180 67 191 180 64 194 180 61 197 180 58 200 180 55 203 180 52 206 180 49 209 180 46 212 180 43 215 180 40 218 180 37 221 180 34 224 180 31 227 180 28 230 180 25 233 180 22 236 180 19 239 180 16 242 180 13 245 180 10 248 180 7 251 180 4 
0 191 255 3 191 252 6 191 249 9 191 246 12 191 243 15 191 240 18 191 237 21 191 234 24 191 231 27 191 228 30 191 225 33 191 222 36 191 219 39 191 216 42 191 213 45 191 210 48 191 207 51 191 204 54 191 201 57 191 198 60 191 195 63 191 192 66 191 189 69 191 186 72 191 183 75 191 180 78 191 177 81 191 174 85 191 170 88 191 167 91 191 164 94 191 161 97 191 158 100 191 155 103 191 152 106 191 149 109 191 146 112 191 143 115 191 140 118 191 137 121 191 134 124 191 131 127 191 128 130 191 125 133 191 122 136 191 119 139 191 116 142 191 113 145 191 110 148 191 107 151 191 104 154 191 101 157 191 98 160 191 95 163 191 92 166 191 89 170 191 85 173 191 82 176 191 79 179 191 76 182 191 73 185 191 70 188 191 67 191 191 64 194 191 61 197 191 58 200 191 55 203 191 52 206 191 49 209 191 46 212 191 43 215 191 40 218 191 37 221 191 34 224 191 31 227 191 28 230 191 25 233 191 22 236 191 19 239 191 16 242 191 13 245 191 10 248 191 7 251 191 4 
0 201 255 3 201 252 6 201 249 9 201 246 12 201 243 15 201 240 18 201 237 21 201 234 24 201 231 27 201 228 30 201 225 33 201 222 36 201 219 39 201 216 42 201 213 45 201 210 48 201 207 51 201 204 54 201 201 57 201 198 60 201 195 63 201 192 66 201 189 69 201 186 72 201 183 75 201 180 78 201 177 81 201 174 85 201 170 88 201 167 91 201 164 94 201 161 97 201 158 100 201 155 103 201 152 106 201 149 109 201 146 112 201 143 115 201 140 118 201 137 121 201 134 124 201 131 127 201 128 130 201 125 133 201 122 136 201 119 139 201 116 142 201 113 145 201 110 148 201 107 151 201 104 154 201 101 157 201 98 160 201 95 163 201 92 166 201 89 170 201 85 173 201 82 176 201 79 179 201 76 182 201 73 185 201 70 188 201 67 191 201 64 194 201 61 197 201 58 200 201 55 203 201 52 206 201 49 209 201 46 212 201 43 215 201 40 218 201 37 221 201 34 224 201 31 227 201 28 230 201 25 233 201 22 236 201 19 239 201 16 242 201 13 245 201 10 248 201 7 251 201 4 
0 212 255 3 212 252 6 212 249 9 212 246 12 212 243 15 212 240 18 212 237 21 212 234 24 212 231 27 212 228 30 212 225 33 212 222 36 212 219 39 212 216 42 212 213 45 212 210 48 212 207 51 212 204 54 212 201 57 212 198 60 212 195 63 212 192 66 212 189 69 212 186 72 212 183 75 212 180 78 212 177 81 212 174 85 212 170 88 212 167 91 212 164 94 212 161 97 212 158 100 212 155 103 212 152 106 212 149 109 212 146 112 212 143 115 212 140 118 212 137 121 212 134 124 212 131 127 212 128 130 212 125 133 212 122 136 212 119 139 212 116 142 212 113 145 212 110 148 212 107 151 212 104 154 212 101 157 212 98 160 212 95 163 212 92 166 212 89 170 212 85 173 212 82 176 212 79 179 212 76 182 212 73 185 212 70 188 212 67 191 212 64 194 212 61 197 212 58 200 212 55 203 212 52 206 212 49 209 212 46 212 212 43 215 212 40 218 212 37 221 212 34 224 212 31 227 212 28 230 212 25 233 212 22 236 212 19 239 212 16 242 212 13 245 212 10 248 212 7 251 212 4 
0 223 255 3 223 252 6 223 249 9 223 246 12 223 243 15 223 240 18 223 237 21 223 234 24 223 231 27 223 228 30 223 225 33 223 222 36 223 219 39 223 216 42 223 213 45 223 210 48 223 207 51 223 204 54 223 201 57 223 198 60 223 195 63 223 192 66 223 189 69 223 186 72 223 183 75 223 180 78 223 177 81 223 174 85 223 170 88 223 167 91 223 164 94 223 161 97 223 158 100 223 155 103 223 152 106 223 149 109 223 146 112 223 143 115 223 140 118 223 137 121 223 134 124 223 131 127 223 128 130 223 125 133 223 122 136 223 119 139 223 116 142 223 113 145 223 110 148 223 107 151 223 104 154 223 101 157 223 98 160 223 95 163 223 92 166 223 89 170 223 85 173 223 82 176 223 79 179 223 76 182 223 73 185 223 70 188 223 67 191 223 64 194 223 61 197 223 58 200 223 55 203 223 52 206 223 49 209 223 46 212 223 43 215 223 40 218 223 37 221 223 34 224 223 31 227 223 28 230 223 25 233 223 22 236 223 19 239 223 16 242 223 13 245 223 10 248 223 7 251 223 4 
0 233 255 3 233 252 6 233 249 9 233 246 12 233 243 15 233 240 18 233 237 21 233 234 24 233 231 27 233 228 30 233 225 33 233 222 36 233 219 39 233 216 42 233 213 45 233 210 48 233 207 51 233 204 54 233 201 57 233 198 60 233 195 63 233 192 66 233 189 69 233 186 72 233 183 75 233 180 78 233 177 81 233 174 85 233 170 88 233 167 91 233 164 94 233 161 97 233 158 100 233 155 103 233 152 106 233 149 109 233 146 112 233 143 115 233 140 118 233 137 121 233 134 124 233 131 127 233 128 130 233 125 133 233 122 136 233 119 139 233 116 142 233 113 145 233 110 148 233 107 151 233 104 154 233 101 157 233 98 160 233 95 163 233 92 166 233 89 170 233 85 173 233 82 176 233 79 179 233 76 182 233 73 185 233 70 188 233 67 191 233 64 194 233 61 197 233 58 200 233 55 203 233 52 206 233 49 209 233 46 212 233 43 215 233 40 218 233 37 221 233 34 224 233 31 227 233 28 230 233 25 233 233 22 236 233 19 239 233 16 242 233 13 245 233 10 248 233 7 251 233 4 
0 244 255 3 244 252 6 244 249 9 244 246 12 244 243 15 244 240 18 244 237 21 244 234 24 244 231 27 244 228 30 244 225 33 244 222 36 244 219 39 244 216 42 244 213 45 244 210 48 244 207 51 244 204 54 244 201 57 244 198 60 244 195 63 244 192 66 244 189 69 244 186 72 244 183 75 244 180 78 244 177 81 244 174 85 244 170 88 244 167 91 244 164 94 244 161 97 244 158 100 244 155 103 244 152 106 244 149 109 244 146 112 244 143 115 244 140 118 244 137 121 244 134 124 244 131 127 244 128 130 244 125 133 244 122 136 244 119 139 244 116 142 244 113 145 244 110 148 244 107 151 244 104 154 244 101 157 244 98 160 244 95 163 244 92 166 244 89 170 244 85 173 244 82 176 244 79 179 244 76 182 244 73 185 244 70 188 244 67 191 244 64 194 244 61 197 244 58 200 244 55 203 244 52 206 244 49 209 244 46 212 244 43 215 244 40 218 244 37 221 244 34 224 244 31 227 244 28 230 244 25 233 244 22 236 244 19 239 244 16 242 244 13 245 244 10 248 244 7 251 244 4 
